<?xml version="1.0" encoding="UTF-8" standalone="no"?>
<svg width="500px" height="500px" viewBox="0 0 500 500" version="1.1" xmlns="http://www.w3.org/2000/svg" xmlns:xlink="http://www.w3.org/1999/xlink" xmlns:sketch="http://www.bohemiancoding.com/sketch/ns">
    <!-- Generator: Sketch 3.3.3 (12072) - http://www.bohemiancoding.com/sketch -->
    <title>Rectangle 1</title>
    <desc>Created with Sketch.</desc>
    <defs></defs>
    <g id="Page-1" stroke="none" stroke-width="1" fill="none" fill-rule="evenodd" sketch:type="MSPage">
        <path d="M159,0 L154.5,4 L150,0" id="Triangle-2-Copy-3" stroke="#FFFFFF" stroke-width="2" sketch:type="MSShapeGroup"></path>
        <path d="M104.999182,3.35960994 C104.999182,4.28699363 104.243676,5.03938174 103.311715,5.03938174 C102.379621,5.03938174 101.624248,4.28699363 101.624248,3.35960994 C101.624248,2.43196091 102.379754,1.67983814 103.311715,1.67983814 C104.243875,1.6797718 104.999182,2.43189457 104.999182,3.35960994 M106.75,3.35960994 C106.75,1.50411286 105.239054,0 103.375,0 C101.511078,0 100,1.50411286 100,3.35960994 C100,4.17541571 100.292411,4.92342561 100.778326,5.50526269 L103.377919,9.23887759 L106.015523,5.45080046 C106.110251,5.3327879 106.197019,5.20840704 106.275296,5.07765788 L106.301964,5.03958075 L106.297585,5.03958075 C106.584822,4.54510879 106.75,3.97182912 106.75,3.35960994" id="Shape" fill="#5C9AFF" sketch:type="MSShapeGroup"></path>
        <path d="M3,52.9907951 L3,52.9907951 L3,69.0092049 C3,69.0006719 2.99932973,69 2.99079514,69 L19.0092049,69 C19.0006719,69 19,69.0006703 19,69.0092049 L19,52.9907951 C19,52.9993281 19.0006703,53 19.0092049,53 L2.99079514,53 C2.99932813,53 3,52.9993297 3,52.9907951 L3,52.9907951 Z M1,52.9907951 C1,51.8913093 1.89821238,51 2.99079514,51 L19.0092049,51 C20.1086907,51 21,51.8982124 21,52.9907951 L21,69.0092049 C21,70.1086907 20.1017876,71 19.0092049,71 L2.99079514,71 C1.89130934,71 1,70.1017876 1,69.0092049 L1,52.9907951 L1,52.9907951 Z" id="Shape" fill="#FD6767" sketch:type="MSShapeGroup"></path>
        <g id="1449648294_search" sketch:type="MSLayerGroup" transform="translate(6.500000, 6.500000) scale(-1, 1) translate(-6.500000, -6.500000) " fill="#FFFFFF">
            <g id="Group" sketch:type="MSShapeGroup">
                <path d="M12.6425,10.9195937 L9.6598125,7.93690625 C9.21496875,8.6279375 8.62753125,9.21578125 7.9365,9.66021875 L10.9195937,12.6429062 C11.3957187,13.1190312 12.1671875,13.1190312 12.6425,12.6429062 C13.1190312,12.168 13.1190312,11.3965312 12.6425,10.9195937 L12.6425,10.9195937 Z" id="Shape"></path>
                <path d="M9.75,4.875 C9.75,2.18278125 7.56721875,0 4.875,0 C2.18278125,0 0,2.18278125 0,4.875 C0,7.56721875 2.18278125,9.75 4.875,9.75 C7.56721875,9.75 9.75,7.56721875 9.75,4.875 L9.75,4.875 Z M4.875,8.53125 C2.858375,8.53125 1.21875,6.891625 1.21875,4.875 C1.21875,2.85878125 2.858375,1.21875 4.875,1.21875 C6.89121875,1.21875 8.53125,2.85878125 8.53125,4.875 C8.53125,6.891625 6.89121875,8.53125 4.875,8.53125 L4.875,8.53125 Z" id="Shape"></path>
                <path d="M2.03125,4.875 L2.84375,4.875 C2.84375,3.75496875 3.7545625,2.84375 4.875,2.84375 L4.875,2.03125 C3.306875,2.03125 2.03125,3.3076875 2.03125,4.875 L2.03125,4.875 Z" id="Shape"></path>
            </g>
        </g>
        <path d="M59,0 L54.5,4 L50,0" id="Triangle-2" stroke="#7E7E7E" sketch:type="MSShapeGroup"></path>
        <g id="Rectangle-17-+-✓" sketch:type="MSLayerGroup" transform="translate(51.000000, 51.000000)">
            <rect id="Rectangle-17" fill="#FD6767" sketch:type="MSShapeGroup" x="0" y="0" width="20" height="20" rx="2"></rect>
            <path d="M4.18415996,11.7174735 C3.98903704,11.4613747 3.92501329,11.1808897 3.99208679,10.8760101 C4.0591603,10.5711305 4.23293905,10.3272305 4.51342825,10.1443028 C4.80611264,9.96137508 5.12013389,9.90040008 5.45550143,9.96137598 C5.79086896,10.0223519 6.05611021,10.1869844 6.25123313,10.4552784 L8.28172094,13.016254 L13.7146477,4.58332717 C13.8975755,4.30283797 14.135378,4.12601047 14.4280624,4.05283937 C14.7207468,3.97966827 15.0195243,4.02235077 15.3244038,4.18088815 C15.6170882,4.33942553 15.8061107,4.57113053 15.891477,4.8760101 C15.9768433,5.18088967 15.9341608,5.46747217 15.7634282,5.7357662 L9.45245264,15.4125955 C9.35489114,15.583328 9.21159994,15.717473 9.02257464,15.8150345 C8.83354926,15.912596 8.63538051,15.9674735 8.4280624,15.9796687 C8.20854911,15.9918638 8.01038036,15.9522301 7.83355021,15.8607662 C7.65672005,15.7693023 7.5012338,15.6443036 7.36708679,15.4857662 L4.18415996,11.7174735 L4.18415996,11.7174735 Z" id="✓" fill="#FFFFFF" sketch:type="MSShapeGroup"></path>
        </g>
    </g>
</svg>